<svg xmlns="http://www.w3.org/2000/svg" xmlns:xlink="http://www.w3.org/1999/xlink" version="1.1" width="256" height="256" viewBox="0 0 256 256" xml:space="preserve">
<g style="stroke: none; stroke-width: 0; stroke-dasharray: none; stroke-linecap: butt; stroke-linejoin: miter; stroke-miterlimit: 10; fill: none; fill-rule: nonzero; opacity: 1;" transform="translate(1.4065934065934016 1.4065934065934016) scale(2.81 2.81)">
	<path d="M 50.331 36.143 c 0 -13.476 -11.347 -24.302 -25.008 -23.444 c -11.617 0.73 -21.096 10.128 -21.915 21.74 c -0.576 8.158 3.018 15.506 8.864 20.132 c 3.304 2.615 5.304 6.537 5.304 10.751 l 0 6.838 c 0 1.187 0.962 2.149 2.149 2.149 h 14.23 c 1.187 0 2.149 -0.962 2.149 -2.149 l 0 -6.84 c 0 -4.14 1.871 -8.079 5.14 -10.619 C 46.772 50.403 50.331 43.689 50.331 36.143 z" style="stroke: none; stroke-width: 1; stroke-dasharray: none; stroke-linecap: butt; stroke-linejoin: miter; stroke-miterlimit: 10; fill: rgb(247,191,80); fill-rule: nonzero; opacity: 1;" transform=" matrix(1 0 0 1 0 0) " stroke-linecap="round"/>
	<path d="M 29.915 83.349 h -6.152 c -2.148 0 -3.89 -1.742 -3.89 -3.89 v -5.151 h 13.932 v 5.151 C 33.805 81.607 32.063 83.349 29.915 83.349 z" style="stroke: none; stroke-width: 1; stroke-dasharray: none; stroke-linecap: butt; stroke-linejoin: miter; stroke-miterlimit: 10; fill: rgb(176,182,188); fill-rule: nonzero; opacity: 1;" transform=" matrix(1 0 0 1 0 0) " stroke-linecap="round"/>
	<path d="M 17.576 65.881 v 6.278 c 0 1.187 0.962 2.149 2.149 2.149 h 14.23 c 1.187 0 2.149 -0.962 2.149 -2.149 v -6.278 H 17.576 z" style="stroke: none; stroke-width: 1; stroke-dasharray: none; stroke-linecap: butt; stroke-linejoin: miter; stroke-miterlimit: 10; fill: rgb(201,207,212); fill-rule: nonzero; opacity: 1;" transform=" matrix(1 0 0 1 0 0) " stroke-linecap="round"/>
	<path d="M 29.915 84.349 h -6.152 c -2.696 0 -4.89 -2.193 -4.89 -4.89 v -5.151 c 0 -0.553 0.448 -1 1 -1 h 13.932 c 0.552 0 1 0.447 1 1 v 5.151 C 34.805 82.155 32.611 84.349 29.915 84.349 z M 20.873 75.308 v 4.151 c 0 1.594 1.296 2.89 2.89 2.89 h 6.152 c 1.593 0 2.89 -1.296 2.89 -2.89 v -4.151 H 20.873 z" style="stroke: none; stroke-width: 1; stroke-dasharray: none; stroke-linecap: butt; stroke-linejoin: miter; stroke-miterlimit: 10; fill: rgb(0,0,0); fill-rule: nonzero; opacity: 1;" transform=" matrix(1 0 0 1 0 0) " stroke-linecap="round"/>
	<path d="M 36.102 66.881 H 17.576 c -0.552 0 -1 -0.447 -1 -1 v -0.56 c 0 -3.856 -1.795 -7.489 -4.925 -9.967 l 0 0 C 5.292 50.323 1.837 42.478 2.41 34.368 c 0.858 -12.159 10.681 -21.903 22.85 -22.667 c 6.841 -0.436 13.362 1.909 18.343 6.586 c 4.911 4.613 7.729 11.121 7.729 17.856 c 0 7.615 -3.454 14.667 -9.476 19.347 c -2.977 2.313 -4.753 5.986 -4.753 9.829 v 0.562 C 37.102 66.434 36.654 66.881 36.102 66.881 z M 18.569 64.881 h 16.54 c 0.13 -4.295 2.173 -8.37 5.519 -10.971 c 5.531 -4.298 8.703 -10.774 8.703 -17.767 c 0 -6.276 -2.521 -12.1 -7.098 -16.398 c -4.574 -4.296 -10.555 -6.44 -16.849 -6.048 c -11.173 0.702 -20.192 9.649 -20.98 20.812 c -0.526 7.45 2.647 14.656 8.487 19.277 l 0 0 C 16.385 56.551 18.438 60.574 18.569 64.881 z" style="stroke: none; stroke-width: 1; stroke-dasharray: none; stroke-linecap: butt; stroke-linejoin: miter; stroke-miterlimit: 10; fill: rgb(0,0,0); fill-rule: nonzero; opacity: 1;" transform=" matrix(1 0 0 1 0 0) " stroke-linecap="round"/>
	<path d="M 33.954 75.308 H 19.724 c -1.736 0 -3.148 -1.412 -3.148 -3.148 v -6.278 c 0 -0.553 0.448 -1 1 -1 h 18.526 c 0.552 0 1 0.447 1 1 v 6.278 C 37.102 73.896 35.689 75.308 33.954 75.308 z M 18.576 66.881 v 5.278 c 0 0.633 0.515 1.148 1.148 1.148 h 14.229 c 0.633 0 1.148 -0.516 1.148 -1.148 v -5.278 H 18.576 z" style="stroke: none; stroke-width: 1; stroke-dasharray: none; stroke-linecap: butt; stroke-linejoin: miter; stroke-miterlimit: 10; fill: rgb(0,0,0); fill-rule: nonzero; opacity: 1;" transform=" matrix(1 0 0 1 0 0) " stroke-linecap="round"/>
	<path d="M 39.543 39.838 c 0 3.6 -2.865 6.523 -6.438 6.633 c -0.905 2.592 -3.366 4.455 -6.267 4.455 c -2.901 0 -5.361 -1.863 -6.267 -4.455 c -3.573 -0.11 -6.438 -3.033 -6.438 -6.633 c 0 -2.03 0.913 -3.844 2.347 -5.062 c -0.464 -0.907 -0.731 -1.931 -0.731 -3.019 c 0 -3.003 1.993 -5.538 4.728 -6.36 c 0.823 -2.735 3.357 -4.728 6.36 -4.728 c 3.003 0 5.538 1.993 6.36 4.728 c 2.735 0.823 4.728 3.357 4.728 6.36 c 0 1.088 -0.267 2.113 -0.731 3.019 C 38.631 35.994 39.543 37.808 39.543 39.838 z" style="stroke: none; stroke-width: 1; stroke-dasharray: none; stroke-linecap: butt; stroke-linejoin: miter; stroke-miterlimit: 10; fill: rgb(241,123,123); fill-rule: nonzero; opacity: 1;" transform=" matrix(1 0 0 1 0 0) " stroke-linecap="round"/>
	<path d="M 26.839 51.926 c -3.019 0 -5.738 -1.784 -6.963 -4.504 c -3.831 -0.443 -6.742 -3.656 -6.742 -7.584 c 0 -1.988 0.773 -3.882 2.143 -5.302 c -0.35 -0.887 -0.526 -1.819 -0.526 -2.78 c 0 -3.168 2.006 -6.035 4.94 -7.148 c 1.113 -2.934 3.979 -4.94 7.148 -4.94 c 3.168 0 6.035 2.007 7.148 4.94 c 2.934 1.113 4.94 3.98 4.94 7.148 c 0 0.961 -0.177 1.893 -0.526 2.78 c 1.37 1.42 2.143 3.313 2.143 5.302 c 0 3.928 -2.911 7.141 -6.741 7.584 C 32.577 50.141 29.857 51.926 26.839 51.926 z M 26.839 21.668 c -2.47 0 -4.691 1.651 -5.402 4.016 c -0.097 0.321 -0.348 0.573 -0.669 0.669 c -2.365 0.711 -4.016 2.933 -4.016 5.403 c 0 0.896 0.209 1.758 0.621 2.563 c 0.211 0.413 0.111 0.917 -0.243 1.218 c -1.268 1.077 -1.995 2.645 -1.995 4.3 c 0 3.065 2.402 5.54 5.469 5.633 c 0.414 0.013 0.777 0.279 0.914 0.669 c 0.79 2.265 2.929 3.785 5.322 3.785 s 4.532 -1.521 5.323 -3.785 c 0.136 -0.391 0.5 -0.657 0.913 -0.669 c 3.066 -0.094 5.468 -2.568 5.468 -5.633 c 0 -1.656 -0.727 -3.223 -1.995 -4.3 c -0.354 -0.301 -0.454 -0.805 -0.243 -1.218 c 0.412 -0.805 0.621 -1.668 0.621 -2.563 c 0 -2.47 -1.651 -4.691 -4.016 -5.403 c -0.321 -0.097 -0.573 -0.348 -0.669 -0.669 C 31.53 23.319 29.309 21.668 26.839 21.668 z" style="stroke: none; stroke-width: 1; stroke-dasharray: none; stroke-linecap: butt; stroke-linejoin: miter; stroke-miterlimit: 10; fill: rgb(0,0,0); fill-rule: nonzero; opacity: 1;" transform=" matrix(1 0 0 1 0 0) " stroke-linecap="round"/>
	<path d="M 21.83 29.767 c -0.208 0 -0.418 -0.065 -0.598 -0.2 c -0.596 -0.446 -2.411 -1.804 -1.72 -4.426 c 0.14 -0.534 0.685 -0.857 1.222 -0.712 c 0.534 0.141 0.853 0.688 0.712 1.222 c -0.253 0.961 0.014 1.589 0.984 2.316 c 0.442 0.331 0.532 0.958 0.201 1.399 C 22.435 29.629 22.135 29.767 21.83 29.767 z" style="stroke: none; stroke-width: 1; stroke-dasharray: none; stroke-linecap: butt; stroke-linejoin: miter; stroke-miterlimit: 10; fill: rgb(0,0,0); fill-rule: nonzero; opacity: 1;" transform=" matrix(1 0 0 1 0 0) " stroke-linecap="round"/>
	<path d="M 34.344 37.95 c -0.5 0 -1.028 -0.094 -1.578 -0.285 c -0.522 -0.181 -0.798 -0.751 -0.617 -1.272 c 0.182 -0.522 0.752 -0.797 1.272 -0.617 c 0.968 0.336 1.986 0.395 2.876 -1.437 c 0.241 -0.497 0.839 -0.703 1.336 -0.462 c 0.497 0.241 0.704 0.84 0.462 1.336 C 37.22 37.014 35.918 37.95 34.344 37.95 z" style="stroke: none; stroke-width: 1; stroke-dasharray: none; stroke-linecap: butt; stroke-linejoin: miter; stroke-miterlimit: 10; fill: rgb(0,0,0); fill-rule: nonzero; opacity: 1;" transform=" matrix(1 0 0 1 0 0) " stroke-linecap="round"/>
	<path d="M 20.572 47.471 c -0.406 0 -0.788 -0.249 -0.938 -0.652 c -0.872 -2.348 -0.641 -4.354 0.688 -5.962 c 0.352 -0.425 0.982 -0.485 1.408 -0.134 c 0.426 0.352 0.486 0.982 0.134 1.408 c -0.865 1.047 -0.978 2.316 -0.354 3.994 c 0.192 0.518 -0.072 1.093 -0.589 1.285 C 20.806 47.451 20.688 47.471 20.572 47.471 z" style="stroke: none; stroke-width: 1; stroke-dasharray: none; stroke-linecap: butt; stroke-linejoin: miter; stroke-miterlimit: 10; fill: rgb(0,0,0); fill-rule: nonzero; opacity: 1;" transform=" matrix(1 0 0 1 0 0) " stroke-linecap="round"/>
	<path d="M 26.839 51.926 c -0.552 0 -1 -0.447 -1 -1 V 26.319 c 0 -0.552 0.448 -1 1 -1 s 1 0.448 1 1 v 24.607 C 27.839 51.479 27.391 51.926 26.839 51.926 z" style="stroke: none; stroke-width: 1; stroke-dasharray: none; stroke-linecap: butt; stroke-linejoin: miter; stroke-miterlimit: 10; fill: rgb(0,0,0); fill-rule: nonzero; opacity: 1;" transform=" matrix(1 0 0 1 0 0) " stroke-linecap="round"/>
	<path d="M 26.839 40.01 c -0.265 0 -0.53 -0.105 -0.727 -0.313 l -4 -4.234 c -0.379 -0.401 -0.361 -1.034 0.041 -1.414 c 0.4 -0.379 1.034 -0.363 1.414 0.041 l 4 4.234 c 0.379 0.401 0.361 1.034 -0.041 1.414 C 27.333 39.919 27.085 40.01 26.839 40.01 z" style="stroke: none; stroke-width: 1; stroke-dasharray: none; stroke-linecap: butt; stroke-linejoin: miter; stroke-miterlimit: 10; fill: rgb(0,0,0); fill-rule: nonzero; opacity: 1;" transform=" matrix(1 0 0 1 0 0) " stroke-linecap="round"/>
	<path d="M 26.839 33.506 c -0.277 0 -0.552 -0.114 -0.75 -0.338 c -0.366 -0.414 -0.326 -1.046 0.088 -1.411 l 3.553 -3.137 c 0.414 -0.366 1.046 -0.326 1.411 0.088 c 0.366 0.414 0.326 1.046 -0.088 1.411 L 27.5 33.256 C 27.311 33.424 27.074 33.506 26.839 33.506 z" style="stroke: none; stroke-width: 1; stroke-dasharray: none; stroke-linecap: butt; stroke-linejoin: miter; stroke-miterlimit: 10; fill: rgb(0,0,0); fill-rule: nonzero; opacity: 1;" transform=" matrix(1 0 0 1 0 0) " stroke-linecap="round"/>
	<path d="M 84.214 41.605 H 72.185 c -1.347 0 -2.439 -1.092 -2.439 -2.439 V 27.137 c 0 -1.347 1.092 -2.439 2.439 -2.439 h 12.029 c 1.347 0 2.439 1.092 2.439 2.439 v 12.029 C 86.653 40.513 85.561 41.605 84.214 41.605 z" style="stroke: none; stroke-width: 1; stroke-dasharray: none; stroke-linecap: butt; stroke-linejoin: miter; stroke-miterlimit: 10; fill: rgb(241,123,123); fill-rule: nonzero; opacity: 1;" transform=" matrix(1 0 0 1 0 0) " stroke-linecap="round"/>
	<polygon points="75.13,29.08 75.13,37.22 81.27,33.15 " style="stroke: none; stroke-width: 1; stroke-dasharray: none; stroke-linecap: butt; stroke-linejoin: miter; stroke-miterlimit: 10; fill: rgb(249,249,249); fill-rule: nonzero; opacity: 1;" transform="  matrix(1 0 0 1 0 0) "/>
	<path d="M 84.214 42.604 H 72.185 c -1.896 0 -3.438 -1.542 -3.438 -3.439 V 27.137 c 0 -1.896 1.543 -3.439 3.438 -3.439 h 12.029 c 1.896 0 3.439 1.542 3.439 3.439 v 12.029 C 87.653 41.062 86.11 42.604 84.214 42.604 z M 72.185 25.698 c -0.793 0 -1.438 0.646 -1.438 1.439 v 12.029 c 0 0.793 0.646 1.439 1.438 1.439 h 12.029 c 0.794 0 1.439 -0.646 1.439 -1.439 V 27.137 c 0 -0.793 -0.646 -1.439 -1.439 -1.439 H 72.185 z" style="stroke: none; stroke-width: 1; stroke-dasharray: none; stroke-linecap: butt; stroke-linejoin: miter; stroke-miterlimit: 10; fill: rgb(0,0,0); fill-rule: nonzero; opacity: 1;" transform=" matrix(1 0 0 1 0 0) " stroke-linecap="round"/>
	<path d="M 75.127 38.22 c -0.162 0 -0.325 -0.04 -0.474 -0.119 c -0.324 -0.174 -0.526 -0.513 -0.526 -0.881 v -8.137 c 0 -0.368 0.202 -0.707 0.526 -0.881 c 0.326 -0.174 0.72 -0.156 1.025 0.047 l 6.145 4.069 c 0.28 0.186 0.448 0.499 0.448 0.834 s -0.168 0.648 -0.448 0.834 l -6.145 4.068 C 75.513 38.164 75.32 38.22 75.127 38.22 z M 76.127 30.944 v 4.415 l 3.333 -2.207 L 76.127 30.944 z" style="stroke: none; stroke-width: 1; stroke-dasharray: none; stroke-linecap: butt; stroke-linejoin: miter; stroke-miterlimit: 10; fill: rgb(0,0,0); fill-rule: nonzero; opacity: 1;" transform=" matrix(1 0 0 1 0 0) " stroke-linecap="round"/>
	<path d="M 84.214 65.302 H 72.185 c -1.347 0 -2.439 -1.092 -2.439 -2.439 V 50.834 c 0 -1.347 1.092 -2.439 2.439 -2.439 h 12.029 c 1.347 0 2.439 1.092 2.439 2.439 v 12.029 C 86.653 64.21 85.561 65.302 84.214 65.302 z" style="stroke: none; stroke-width: 1; stroke-dasharray: none; stroke-linecap: butt; stroke-linejoin: miter; stroke-miterlimit: 10; fill: rgb(126,198,197); fill-rule: nonzero; opacity: 1;" transform=" matrix(1 0 0 1 0 0) " stroke-linecap="round"/>
	<path d="M 84.214 66.303 H 72.185 c -1.896 0 -3.438 -1.543 -3.438 -3.439 V 50.834 c 0 -1.896 1.543 -3.438 3.438 -3.438 h 12.029 c 1.896 0 3.439 1.543 3.439 3.438 v 12.029 C 87.653 64.76 86.11 66.303 84.214 66.303 z M 72.185 49.396 c -0.793 0 -1.438 0.646 -1.438 1.438 v 12.029 c 0 0.794 0.646 1.439 1.438 1.439 h 12.029 c 0.794 0 1.439 -0.646 1.439 -1.439 V 50.834 c 0 -0.793 -0.646 -1.438 -1.439 -1.438 H 72.185 z" style="stroke: none; stroke-width: 1; stroke-dasharray: none; stroke-linecap: butt; stroke-linejoin: miter; stroke-miterlimit: 10; fill: rgb(0,0,0); fill-rule: nonzero; opacity: 1;" transform=" matrix(1 0 0 1 0 0) " stroke-linecap="round"/>
	<path d="M 82.233 56.239 c -0.553 0 -1 -0.447 -1 -1 v -1.292 h -6.068 v 1.292 c 0 0.553 -0.447 1 -1 1 s -1 -0.447 -1 -1 v -2.292 c 0 -0.553 0.447 -1 1 -1 h 8.068 c 0.553 0 1 0.447 1 1 v 2.292 C 83.233 55.792 82.786 56.239 82.233 56.239 z" style="stroke: none; stroke-width: 1; stroke-dasharray: none; stroke-linecap: butt; stroke-linejoin: miter; stroke-miterlimit: 10; fill: rgb(0,0,0); fill-rule: nonzero; opacity: 1;" transform=" matrix(1 0 0 1 0 0) " stroke-linecap="round"/>
	<path d="M 78.199 61.75 c -0.553 0 -1 -0.447 -1 -1 v -7.803 c 0 -0.553 0.447 -1 1 -1 s 1 0.447 1 1 v 7.803 C 79.199 61.303 78.752 61.75 78.199 61.75 z" style="stroke: none; stroke-width: 1; stroke-dasharray: none; stroke-linecap: butt; stroke-linejoin: miter; stroke-miterlimit: 10; fill: rgb(0,0,0); fill-rule: nonzero; opacity: 1;" transform=" matrix(1 0 0 1 0 0) " stroke-linecap="round"/>
	<path d="M 80.682 61.75 h -4.965 c -0.553 0 -1 -0.447 -1 -1 s 0.447 -1 1 -1 h 4.965 c 0.553 0 1 0.447 1 1 S 81.234 61.75 80.682 61.75 z" style="stroke: none; stroke-width: 1; stroke-dasharray: none; stroke-linecap: butt; stroke-linejoin: miter; stroke-miterlimit: 10; fill: rgb(0,0,0); fill-rule: nonzero; opacity: 1;" transform=" matrix(1 0 0 1 0 0) " stroke-linecap="round"/>
	<path d="M 84.214 17.907 H 72.185 c -1.347 0 -2.439 -1.092 -2.439 -2.439 V 3.439 C 69.746 2.092 70.838 1 72.185 1 h 12.029 c 1.347 0 2.439 1.092 2.439 2.439 v 12.029 C 86.653 16.815 85.561 17.907 84.214 17.907 z" style="stroke: none; stroke-width: 1; stroke-dasharray: none; stroke-linecap: butt; stroke-linejoin: miter; stroke-miterlimit: 10; fill: rgb(126,198,197); fill-rule: nonzero; opacity: 1;" transform=" matrix(1 0 0 1 0 0) " stroke-linecap="round"/>
	<path d="M 72.185 17.907 h 12.029 c 1.347 0 2.439 -1.092 2.439 -2.439 v -1.825 l -5.295 -5.022 l -5.641 4.983 l -2.8 -2.343 l -3.171 2.556 v 1.65 C 69.746 16.815 70.838 17.907 72.185 17.907 z" style="stroke: none; stroke-width: 1; stroke-dasharray: none; stroke-linecap: butt; stroke-linejoin: miter; stroke-miterlimit: 10; fill: rgb(201,207,212); fill-rule: nonzero; opacity: 1;" transform=" matrix(1 0 0 1 0 0) " stroke-linecap="round"/>
	<path d="M 84.214 18.907 H 72.185 c -1.896 0 -3.438 -1.542 -3.438 -3.439 V 3.439 C 68.746 1.542 70.289 0 72.185 0 h 12.029 c 1.896 0 3.439 1.542 3.439 3.439 v 12.029 C 87.653 17.364 86.11 18.907 84.214 18.907 z M 72.185 2 c -0.793 0 -1.438 0.646 -1.438 1.439 v 12.029 c 0 0.793 0.646 1.439 1.438 1.439 h 12.029 c 0.794 0 1.439 -0.646 1.439 -1.439 V 3.439 C 85.653 2.646 85.008 2 84.214 2 H 72.185 z" style="stroke: none; stroke-width: 1; stroke-dasharray: none; stroke-linecap: butt; stroke-linejoin: miter; stroke-miterlimit: 10; fill: rgb(0,0,0); fill-rule: nonzero; opacity: 1;" transform=" matrix(1 0 0 1 0 0) " stroke-linecap="round"/>
	<path d="M 84.214 18.907 H 72.185 c -1.896 0 -3.438 -1.542 -3.438 -3.439 v -1.65 c 0 -0.302 0.137 -0.589 0.372 -0.778 l 3.171 -2.556 c 0.373 -0.301 0.903 -0.295 1.27 0.011 l 2.141 1.792 l 4.997 -4.414 c 0.389 -0.342 0.974 -0.332 1.351 0.024 l 5.295 5.022 c 0.199 0.189 0.312 0.451 0.312 0.726 v 1.824 C 87.653 17.364 86.11 18.907 84.214 18.907 z M 70.746 14.296 v 1.171 c 0 0.793 0.646 1.439 1.438 1.439 h 12.029 c 0.794 0 1.439 -0.646 1.439 -1.439 v -1.395 l -4.319 -4.096 l -4.955 4.377 c -0.369 0.328 -0.926 0.334 -1.304 0.018 l -2.17 -1.816 L 70.746 14.296 z" style="stroke: none; stroke-width: 1; stroke-dasharray: none; stroke-linecap: butt; stroke-linejoin: miter; stroke-miterlimit: 10; fill: rgb(0,0,0); fill-rule: nonzero; opacity: 1;" transform=" matrix(1 0 0 1 0 0) " stroke-linecap="round"/>
	<circle cx="74.75800000000001" cy="6.458" r="1.808" style="stroke: none; stroke-width: 1; stroke-dasharray: none; stroke-linecap: butt; stroke-linejoin: miter; stroke-miterlimit: 10; fill: rgb(0,0,0); fill-rule: nonzero; opacity: 1;" transform="  matrix(1 0 0 1 0 0) "/>
	<path d="M 84.214 89 H 72.185 c -1.347 0 -2.439 -1.092 -2.439 -2.439 V 74.532 c 0 -1.347 1.092 -2.439 2.439 -2.439 h 12.029 c 1.347 0 2.439 1.092 2.439 2.439 v 12.029 C 86.653 87.908 85.561 89 84.214 89 z" style="stroke: none; stroke-width: 1; stroke-dasharray: none; stroke-linecap: butt; stroke-linejoin: miter; stroke-miterlimit: 10; fill: rgb(247,191,80); fill-rule: nonzero; opacity: 1;" transform=" matrix(1 0 0 1 0 0) " stroke-linecap="round"/>
	<ellipse cx="76.363" cy="84.07900000000001" rx="2.113" ry="1.819" style="stroke: none; stroke-width: 1; stroke-dasharray: none; stroke-linecap: butt; stroke-linejoin: miter; stroke-miterlimit: 10; fill: rgb(249,249,249); fill-rule: nonzero; opacity: 1;" transform=" matrix(1 0 0 1 0 0) "/>
	<path d="M 84.214 90 H 72.185 c -1.896 0 -3.438 -1.543 -3.438 -3.438 V 74.532 c 0 -1.896 1.543 -3.439 3.438 -3.439 h 12.029 c 1.896 0 3.439 1.543 3.439 3.439 v 12.029 C 87.653 88.457 86.11 90 84.214 90 z M 72.185 73.093 c -0.793 0 -1.438 0.646 -1.438 1.439 v 12.029 c 0 0.793 0.646 1.438 1.438 1.438 h 12.029 c 0.794 0 1.439 -0.646 1.439 -1.438 V 74.532 c 0 -0.794 -0.646 -1.439 -1.439 -1.439 H 72.185 z" style="stroke: none; stroke-width: 1; stroke-dasharray: none; stroke-linecap: butt; stroke-linejoin: miter; stroke-miterlimit: 10; fill: rgb(0,0,0); fill-rule: nonzero; opacity: 1;" transform=" matrix(1 0 0 1 0 0) " stroke-linecap="round"/>
	<path d="M 76.359 86.899 c -1.716 0 -3.112 -1.265 -3.112 -2.819 s 1.396 -2.819 3.112 -2.819 c 1.717 0 3.113 1.265 3.113 2.819 S 78.076 86.899 76.359 86.899 z M 76.359 83.261 c -0.603 0 -1.112 0.375 -1.112 0.819 s 0.51 0.819 1.112 0.819 c 0.604 0 1.113 -0.375 1.113 -0.819 S 76.963 83.261 76.359 83.261 z" style="stroke: none; stroke-width: 1; stroke-dasharray: none; stroke-linecap: butt; stroke-linejoin: miter; stroke-miterlimit: 10; fill: rgb(0,0,0); fill-rule: nonzero; opacity: 1;" transform=" matrix(1 0 0 1 0 0) " stroke-linecap="round"/>
	<path d="M 78.473 85.08 c -0.553 0 -1 -0.447 -1 -1 v -8.522 c 0 -0.52 0.398 -0.953 0.916 -0.996 c 1.548 -0.138 3.621 0.477 4.721 4.108 c 0.16 0.529 -0.139 1.087 -0.667 1.247 c -0.531 0.161 -1.087 -0.139 -1.247 -0.667 c -0.509 -1.683 -1.168 -2.332 -1.723 -2.573 v 7.403 C 79.473 84.633 79.025 85.08 78.473 85.08 z" style="stroke: none; stroke-width: 1; stroke-dasharray: none; stroke-linecap: butt; stroke-linejoin: miter; stroke-miterlimit: 10; fill: rgb(0,0,0); fill-rule: nonzero; opacity: 1;" transform=" matrix(1 0 0 1 0 0) " stroke-linecap="round"/>
	<path d="M 56.883 26.396 h -9.151 c -0.553 0 -1 -0.448 -1 -1 s 0.447 -1 1 -1 h 8.151 V 9.651 c 0 -0.552 0.447 -1 1 -1 h 12.863 c 0.553 0 1 0.448 1 1 s -0.447 1 -1 1 H 57.883 v 14.745 C 57.883 25.948 57.436 26.396 56.883 26.396 z" style="stroke: none; stroke-width: 1; stroke-dasharray: none; stroke-linecap: butt; stroke-linejoin: miter; stroke-miterlimit: 10; fill: rgb(0,0,0); fill-rule: nonzero; opacity: 1;" transform=" matrix(1 0 0 1 0 0) " stroke-linecap="round"/>
	<path d="M 69.746 32.396 H 49.848 c -0.553 0 -1 -0.448 -1 -1 s 0.447 -1 1 -1 h 19.898 c 0.553 0 1 0.448 1 1 S 70.299 32.396 69.746 32.396 z" style="stroke: none; stroke-width: 1; stroke-dasharray: none; stroke-linecap: butt; stroke-linejoin: miter; stroke-miterlimit: 10; fill: rgb(0,0,0); fill-rule: nonzero; opacity: 1;" transform=" matrix(1 0 0 1 0 0) " stroke-linecap="round"/>
	<path d="M 69.746 57.849 h -6.529 c -0.553 0 -1 -0.447 -1 -1 V 38.396 H 50.331 c -0.553 0 -1 -0.448 -1 -1 s 0.447 -1 1 -1 h 12.886 c 0.553 0 1 0.448 1 1 v 18.453 h 5.529 c 0.553 0 1 0.447 1 1 S 70.299 57.849 69.746 57.849 z" style="stroke: none; stroke-width: 1; stroke-dasharray: none; stroke-linecap: butt; stroke-linejoin: miter; stroke-miterlimit: 10; fill: rgb(0,0,0); fill-rule: nonzero; opacity: 1;" transform=" matrix(1 0 0 1 0 0) " stroke-linecap="round"/>
	<path d="M 69.746 81.547 H 56.883 c -0.553 0 -1 -0.447 -1 -1 V 44.396 H 49.18 c -0.553 0 -1 -0.448 -1 -1 s 0.447 -1 1 -1 h 7.703 c 0.553 0 1 0.448 1 1 v 36.151 h 11.863 c 0.553 0 1 0.447 1 1 S 70.299 81.547 69.746 81.547 z" style="stroke: none; stroke-width: 1; stroke-dasharray: none; stroke-linecap: butt; stroke-linejoin: miter; stroke-miterlimit: 10; fill: rgb(0,0,0); fill-rule: nonzero; opacity: 1;" transform=" matrix(1 0 0 1 0 0) " stroke-linecap="round"/>
</g>
</svg>